<svg width="359" height="250" viewBox="0 0 359 250" fill="none" xmlns="http://www.w3.org/2000/svg">
<path d="M309.332 27.8885C308.352 32.6585 305.402 40.6085 302.332 44.3685C297.892 49.8185 288.842 54.1185 283.382 58.6585C285.662 64.5485 289.522 69.5785 292.832 74.8385C294.562 77.5885 296.602 80.1385 298.332 82.8285C298.512 83.1085 298.532 83.8985 298.902 84.4785C300.062 86.3085 304.932 92.7585 305.202 94.1585C305.352 94.9285 304.492 96.0785 303.822 96.3085C303.212 96.5185 300.892 96.7685 300.092 96.8285C297.302 97.0285 289.682 96.1885 287.832 96.8085L269.762 69.1685L267.852 67.8385C265.112 78.3585 264.302 89.3185 260.982 99.6885C260.502 101.198 258.892 106.428 258.102 107.318C257.172 108.368 252.782 106.058 251.592 105.308C247.512 102.748 245.432 98.9785 245.912 94.1085C246.652 86.6485 249.832 76.7485 251.202 68.9185C254.342 50.9385 256.272 32.7285 259.482 14.7585C259.742 13.8485 260.512 13.4885 261.192 12.9685C266.222 9.16847 284.252 0.418465 290.252 0.0284652C296.612 -0.381535 303.642 3.68847 307.042 8.94847C310.912 14.9485 310.722 21.1185 309.332 27.8885ZM272.362 44.8685C279.782 41.2785 286.882 36.8685 292.332 30.6185C295.872 26.0585 301.202 15.3885 291.612 14.8685C286.872 14.6085 278.322 16.6485 275.362 20.6485C271.772 25.4985 272.642 38.8285 272.362 44.8685Z" fill="#FDFDFD"/>
<path d="M232.892 58.8584C236.462 44.8784 238.922 30.4484 240.262 16.0284C240.692 15.2784 241.142 14.4984 242.092 14.4384C243.262 14.3684 250.952 15.6684 252.522 16.0184C254.712 16.5184 254.942 19.6584 254.882 21.6184C254.202 43.4384 246.092 82.5284 231.642 99.3184C223.742 108.508 214.362 114.038 203.672 104.798C196.372 98.4984 196.722 81.3484 197.412 72.3384C197.892 72.2084 197.892 71.7584 197.912 71.3384C197.982 70.0184 197.812 68.6584 197.912 67.3384C198.612 57.9184 200.822 48.7184 201.912 39.3684C204.362 35.6684 205.072 24.2384 208.362 21.5984C210.012 20.2784 217.922 21.2484 218.382 23.6484C219.292 28.3984 215.752 44.8684 214.902 50.8584C213.292 62.0684 210.712 74.1484 211.382 85.5984C211.542 88.2784 212.032 95.9884 216.412 94.6184C220.282 93.4084 226.682 78.0684 228.272 73.9584C229.502 70.7784 233.012 61.7484 232.892 58.8484V58.8584Z" fill="#FDFDFD"/>
<path d="M136.952 81.8384C135.762 82.7184 129.182 86.5484 129.002 87.1584C128.612 88.4684 132.582 94.3484 133.452 95.8184C134.872 98.2384 136.462 100.458 137.952 102.808C139.052 104.548 140.362 106.128 141.452 107.808C142.942 110.108 146.102 114.718 147.062 116.938C147.272 117.428 147.712 118.318 147.412 118.748C145.942 120.828 135.082 120.078 132.462 119.798C132.302 118.678 131.082 117.098 130.472 116.038C126.282 108.828 120.612 101.968 116.222 94.8284L107.422 128.498L106.762 129.138C105.712 129.298 100.362 126.618 99.4923 125.788C98.8923 125.218 97.2723 122.248 97.1023 121.428C96.1023 116.548 100.322 101.808 101.332 95.9084C103.892 80.8984 105.772 65.7684 108.092 50.7184C108.212 50.0784 108.582 49.5984 108.972 49.0984C109.672 48.2084 120.132 42.2984 121.852 41.4984C130.582 37.4084 139.452 34.5684 147.142 42.4184C154.832 50.2684 151.852 63.0384 147.202 71.3484C144.602 75.9984 141.152 78.7284 136.952 81.8284V81.8384ZM119.462 75.3384C126.402 73.3784 143.862 60.0984 140.182 51.8684C138.272 47.5984 123.162 50.7884 121.062 56.2084C120.552 57.5284 119.462 63.2884 119.462 64.5984V75.3384Z" fill="#FDFDFD"/>
<path d="M41.0116 138.288C41.2616 133.438 47.5916 119.598 49.7716 114.328C59.4916 90.8284 71.5916 68.3384 83.6416 46.0384C89.2616 42.6384 90.5016 47.0584 91.3416 51.7584C92.4316 57.9084 92.5716 66.1884 92.9716 72.6084C93.3316 78.3684 93.3116 84.2084 93.5816 89.9784C94.3516 93.4584 99.2416 92.2684 99.4916 95.1084C99.7416 97.9484 94.6516 98.7084 94.0716 100.678C93.0816 104.078 94.3516 112.828 93.9816 117.078C93.7216 120.098 91.9516 126.358 87.9716 124.548C83.9916 122.738 84.3316 107.888 83.4316 103.868C82.7416 103.678 82.0416 103.848 81.3616 103.958C77.9616 104.478 68.4516 106.748 65.4816 108.068C63.4216 108.978 61.3616 114.878 60.0816 117.148C57.0516 122.508 52.9816 130.578 49.5016 135.298C47.8216 137.568 40.6316 145.588 41.0116 138.298V138.288ZM84.4816 68.3484L81.8316 69.9784L70.0016 97.3084L83.2616 93.8384L84.4916 68.3484H84.4816Z" fill="#FDFDFD"/>
<path d="M200.412 36.8784C199.612 38.8684 197.592 40.2184 195.562 40.7684C194.822 40.9684 192.862 41.2484 191.922 41.3784C190.352 41.5984 184.052 41.1284 183.512 42.7084C179.992 63.4484 176.702 84.2784 172.172 104.798C170.742 109.278 162.802 128.028 161.462 113.048C160.692 104.498 163.532 89.5184 164.452 80.3384C165.702 67.9384 167.122 55.5284 168.462 43.1284C168.442 42.6484 166.542 42.8984 165.952 42.8684C162.582 42.7284 159.012 43.1084 155.692 42.8884C150.632 42.5584 148.452 42.4984 147.472 36.8984C150.272 35.5984 152.962 34.8584 155.952 34.1184C170.372 30.5684 185.762 28.9084 200.252 25.4084C201.622 25.1884 202.822 26.8684 202.862 28.1084C202.882 28.8484 200.842 35.8284 200.422 36.8684L200.412 36.8784Z" fill="#FDFDFD"/>
<path d="M119.482 146.548C120.072 144.548 120.202 142.118 121.732 140.548C123.092 139.148 127.372 136.708 128.712 139.078L140.982 186.508C142.132 186.788 141.802 186.288 142.122 185.878C147.642 178.858 152.442 164.738 156.542 156.358C159.862 149.568 166.592 134.138 173.272 131.128C179.952 128.118 180.362 130.898 179.942 136.798C179.432 143.998 177.742 152.498 176.952 160.038C176.062 168.518 175.252 177.018 174.452 185.518C173.372 197.008 173.192 210.608 171.422 221.708C170.082 230.128 159.012 220.578 157.592 216.108C157.022 214.318 157.362 210.718 157.462 208.758C157.942 199.708 160.182 190.588 158.952 181.528C156.512 184.748 154.642 188.968 152.872 192.678C149.182 200.408 146.382 209.518 142.552 216.828C136.572 228.258 133.712 223.048 130.462 213.748C127.822 206.198 127.892 198.348 125.832 190.908C125.662 190.298 125.222 188.608 124.482 188.518L114.442 237.178C110.502 239.818 106.652 234.128 105.472 230.748C101.342 218.958 106.382 204.348 108.992 192.518C109.902 188.378 111.062 184.198 111.992 180.028C113.462 173.418 114.472 166.628 115.992 160.048C117.022 155.578 118.202 150.958 119.492 146.558L119.482 146.548Z" fill="#FDFDFD"/>
<path d="M320.852 113.578C328.892 106.538 341.302 98.0584 352.162 104.008C359.032 107.768 358.842 113.188 358.342 120.348C358.032 124.828 355.142 137.278 351.102 139.588C349.762 140.358 342.632 141.158 341.902 139.988C340.922 133.138 349.772 108.728 334.832 121.318C330.322 125.128 325.942 130.928 324.112 136.578C323.312 139.068 321.532 146.048 322.812 148.198C322.932 148.398 326.002 151.018 326.372 151.258C331.052 154.348 337.602 154.608 342.282 158.328C354.432 167.978 346.892 187.838 338.152 197.318C330.102 206.048 312.682 217.698 300.352 213.478C293.782 211.228 290.952 201.598 291.362 195.248C291.622 191.268 293.512 184.258 295.852 181.008C297.642 178.508 300.102 178.728 303.042 179.068C308.292 179.658 309.552 181.158 309.342 186.508C307.902 187.898 309.032 195.408 311.812 196.278C317.932 198.178 324.492 190.198 326.912 185.348C329.092 180.988 330.182 173.368 326.842 169.368C326.452 168.898 325.882 169.088 325.822 169.028C321.702 165.238 320.702 166.548 315.832 165.528C309.582 164.228 302.622 163.058 301.852 155.278C300.222 138.918 308.982 123.958 320.832 113.568L320.852 113.578Z" fill="#FDFDFD"/>
<path d="M283.372 120.568C288.912 128.168 293.232 143.718 293.862 153.038C294.402 160.888 293.542 169.348 291.862 177.018C287.942 194.948 277.022 216.698 256.882 219.478C253.252 219.978 248.992 220.418 245.392 219.478C238.252 217.608 232.462 210.268 230.402 203.488C229.142 199.358 228.992 195.268 228.902 190.998C228.872 189.678 228.852 188.318 228.902 186.998C229.752 165.348 244.942 138.648 261.372 124.798C267.732 119.438 276.462 111.098 283.362 120.558L283.372 120.568ZM249.402 175.018C248.902 176.848 248.282 178.648 247.902 180.508C246.972 185.018 245.932 191.148 246.452 195.688C247.512 204.818 256.642 205.548 262.892 200.488C274.052 191.448 276.522 167.978 277.382 154.528C277.382 154.428 277.842 153.608 277.882 152.528C277.972 150.428 277.962 148.138 277.882 146.038C277.782 143.388 276.842 131.548 274.902 130.288C274.152 129.808 274.142 130.178 273.622 130.538C270.612 132.638 266.282 138.428 264.182 141.588C257.782 151.248 252.452 163.828 249.402 175.018Z" fill="#FDFDFD"/>
<path d="M224.912 171.028C222.722 173.128 219.842 175.168 217.422 177.018C214.712 179.098 209.892 182.798 207.102 184.438C205.382 185.438 199.682 187.238 198.712 188.538C195.912 196.998 194.592 205.898 192.442 214.488C191.052 220.048 189.192 225.568 187.972 231.188L185.942 230.968C185.732 230.298 184.792 229.398 184.442 228.468C182.242 222.688 179.712 216.578 178.442 210.488C176.842 202.758 177.742 195.668 179.442 188.008C181.752 177.598 186.022 165.478 189.302 155.158C191.352 148.698 195.962 131.358 198.932 126.568C200.352 124.278 204.062 122.638 205.962 124.788C206.682 125.608 206.512 127.828 207.612 127.508C216.942 121.188 228.082 117.668 235.012 129.218C242.922 142.418 235.152 161.228 224.922 171.028H224.912ZM225.292 132.678C222.412 129.798 205.452 135.338 206.062 141.938L202.432 168.518C212.102 164.278 221.662 151.438 224.552 141.438C225.062 139.668 226.552 133.938 225.292 132.678Z" fill="#FDFDFD"/>
<path d="M97.5023 161.538C97.5823 162.688 97.4323 163.878 97.5023 165.038L98.0023 166.038C98.1223 167.848 97.8923 169.718 98.0023 171.528C98.3323 177.038 98.2123 183.168 99.0023 188.508C99.2223 189.968 98.7423 190.878 99.9923 192.268C101.602 194.058 105.492 192.908 105.542 196.238C105.592 200.258 100.562 199.628 99.7323 201.968C98.4523 205.608 99.5223 208.428 99.5223 211.708C99.5223 215.588 99.9723 229.558 94.6423 230.378C86.8223 231.588 88.9923 207.638 87.0323 206.188C85.7623 205.908 84.2823 206.468 83.0023 206.728C79.1823 207.528 69.8323 209.418 66.7423 210.948C65.8223 211.408 65.7123 211.478 65.0923 212.298C62.6023 215.558 59.4623 223.218 57.1123 227.298C54.1623 232.408 50.9623 238.448 47.4423 243.108C41.3623 251.148 36.1723 252.518 40.0323 240.198C44.7723 225.068 53.1823 206.958 60.0323 192.498C62.1923 187.938 64.2923 182.908 66.5323 178.508C68.1923 175.248 70.9623 171.538 72.7923 168.028C76.9023 160.128 81.3123 149.398 85.9223 142.198C86.2723 141.658 87.6323 139.828 88.0223 139.548C89.6223 138.398 92.4023 137.978 94.0023 139.318C96.9423 141.768 97.2123 157.258 97.5223 161.528L97.5023 161.538ZM86.9423 194.938L88.5023 165.038C86.6423 165.698 85.4423 167.238 84.7423 169.018L72.0123 198.258C76.9623 198.138 82.0423 195.988 86.9323 194.938H86.9423Z" fill="#FDFDFD"/>
<path d="M47.0319 151.048C49.9919 151.628 52.4319 156.908 53.0319 159.538C53.1519 160.078 52.9719 160.908 53.0319 161.538V163.538C52.4919 168.518 50.5219 177.048 43.8019 174.518C43.2019 174.298 41.5419 173.208 41.5419 172.788V165.048C38.4719 165.638 35.4119 169.198 33.2919 171.538C24.6819 181.008 14.2419 199.668 15.5619 212.748C16.3419 220.448 21.2819 219.788 27.0419 217.238C30.5219 215.698 37.6119 210.068 41.0519 210.708C50.0319 212.368 41.9619 222.808 38.2819 225.978C27.1019 235.628 15.6219 239.308 5.07195 226.228C-9.52806 208.108 10.7619 178.788 23.5319 164.778C28.0819 159.788 39.8219 149.648 47.0319 151.058V151.048Z" fill="#FDFDFD"/>
</svg>
