<svg width="250" height="48" viewBox="0 0 250 48" fill="none" xmlns="http://www.w3.org/2000/svg">
<path d="M104.722 13.3787C104.34 15.2403 103.188 18.3429 101.99 19.8103C100.257 21.9373 96.7256 23.6154 94.5947 25.3872C95.4845 27.6859 96.991 29.649 98.2827 31.7018C98.9579 32.775 99.754 33.7702 100.429 34.82C100.499 34.9293 100.507 35.2376 100.652 35.464C101.104 36.1782 103.005 38.6954 103.11 39.2418C103.169 39.5423 102.833 39.9911 102.572 40.0808C102.334 40.1628 101.428 40.2604 101.116 40.2838C100.027 40.3618 97.0534 40.034 96.3314 40.276L89.2792 29.489L88.5338 28.9699C87.4645 33.0755 87.1484 37.3529 85.8527 41.3999C85.6654 41.9893 85.037 44.0304 84.7287 44.3777C84.3658 44.7875 82.6525 43.886 82.1881 43.5933C80.5958 42.5942 79.784 41.1229 79.9714 39.2222C80.2601 36.3108 81.5012 32.4472 82.0359 29.3914C83.2613 22.3744 84.0145 15.2676 85.2673 8.25445C85.3688 7.89931 85.6693 7.75881 85.9347 7.55587C87.8977 6.07285 94.9342 2.658 97.2759 2.5058C99.758 2.34579 102.502 3.93418 103.828 5.98699C105.339 8.3286 105.265 10.7366 104.722 13.3787ZM90.2939 20.0054C93.1897 18.6044 95.9606 16.8833 98.0876 14.4441C99.4692 12.6645 101.549 8.50032 97.8066 8.29738C95.9567 8.19591 92.6199 8.99206 91.4648 10.5531C90.0637 12.4459 90.4032 17.6482 90.2939 20.0054Z" fill="#FDFDFD"/>
<path d="M74.8904 24.8209C76.2837 19.365 77.2437 13.7334 77.7667 8.10572C77.9345 7.81302 78.1101 7.50861 78.4809 7.48519C78.9375 7.45787 81.9387 7.96522 82.5514 8.10182C83.4061 8.29695 83.4958 9.52239 83.4724 10.2873C83.207 18.803 80.0419 34.0586 74.4026 40.6112C71.3194 44.1977 67.6587 46.3559 63.4868 42.7498C60.6378 40.2912 60.7744 33.598 61.0437 30.0817C61.231 30.031 61.231 29.8554 61.2388 29.6915C61.2661 29.1763 61.1998 28.6455 61.2388 28.1304C61.512 24.4541 62.3745 20.8636 62.7999 17.2146C63.756 15.7706 64.0331 11.3098 65.3171 10.2795C65.9611 9.76436 69.0481 10.1429 69.2276 11.0796C69.5828 12.9333 68.2012 19.3611 67.8695 21.6988C67.2411 26.0737 66.2343 30.7881 66.4957 35.2567C66.5582 36.3026 66.7494 39.3116 68.4588 38.7769C69.9691 38.3047 72.4668 32.318 73.0874 30.714C73.5674 29.4729 74.9372 25.9488 74.8904 24.817V24.8209Z" fill="#FDFDFD"/>
<path d="M37.448 26.0539C36.9836 26.3973 34.4156 27.892 34.3454 28.1301C34.1931 28.6414 35.7425 30.9361 36.082 31.5098C36.6362 32.4543 37.2568 33.3207 37.8383 34.2378C38.2675 34.9169 38.7788 35.5335 39.2042 36.1891C39.7857 37.0868 41.0189 38.8859 41.3936 39.7523C41.4756 39.9435 41.6473 40.2909 41.5302 40.4587C40.9565 41.2704 36.7182 40.9777 35.6957 40.8685C35.6332 40.4314 35.1571 39.8147 34.919 39.4011C33.2838 36.5872 31.071 33.91 29.3577 31.1235L25.9234 44.2638L25.6658 44.5136C25.256 44.576 23.1681 43.5301 22.8285 43.2062C22.5944 42.9837 21.9621 41.8246 21.8958 41.5046C21.5055 39.6001 23.1525 33.8475 23.5466 31.545C24.5457 25.687 25.2794 19.7823 26.1848 13.9087C26.2317 13.659 26.3761 13.4716 26.5283 13.2765C26.8015 12.9291 30.8837 10.6227 31.5549 10.3104C34.962 8.71425 38.4237 7.60589 41.4248 10.6695C44.426 13.7331 43.263 18.7168 41.4482 21.96C40.4335 23.7747 39.0871 24.8401 37.448 26.05V26.0539ZM30.6222 23.5171C33.3307 22.7522 40.1447 17.5694 38.7086 14.3575C37.9631 12.6911 32.0662 13.936 31.2466 16.0513C31.0476 16.5664 30.6222 18.8144 30.6222 19.3256V23.5171Z" fill="#FDFDFD"/>
<path d="M0.00566682 43.9554C0.103234 42.0626 2.57363 36.6613 3.42442 34.6046C7.21783 25.4333 11.9401 16.6561 16.6428 7.95314C18.8361 6.62622 19.32 8.35121 19.6479 10.1855C20.0733 12.5856 20.1279 15.817 20.284 18.3226C20.4245 20.5705 20.4167 22.8497 20.5221 25.1015C20.8226 26.4597 22.731 25.9952 22.8286 27.1036C22.9261 28.212 20.9397 28.5086 20.7133 29.2774C20.3269 30.6043 20.8226 34.0192 20.6782 35.6778C20.5767 36.8564 19.8859 39.2995 18.3327 38.5931C16.7794 37.8867 16.9121 32.0912 16.5609 30.5224C16.2916 30.4482 16.0184 30.5146 15.753 30.5575C14.4261 30.7604 10.7146 31.6463 9.55553 32.1615C8.75158 32.5166 7.94763 34.8192 7.44808 35.7051C6.26557 37.797 4.67718 40.9464 3.31905 42.7885C2.66339 43.6744 -0.142635 46.8044 0.00566682 43.9593V43.9554ZM16.9706 16.66L15.9364 17.2962L11.3195 27.9622L16.4945 26.608L16.9745 16.66H16.9706Z" fill="#FDFDFD"/>
<path d="M62.2145 13.2155C61.9023 13.9921 61.114 14.519 60.3217 14.7336C60.0329 14.8117 59.268 14.921 58.9011 14.9717C58.2884 15.0576 55.8297 14.8741 55.619 15.4908C54.2452 23.5849 52.9613 31.7142 51.1933 39.7225C50.6353 41.4709 47.5365 48.7885 47.0136 42.9422C46.7131 39.6054 47.8214 33.7592 48.1805 30.1766C48.6683 25.3372 49.2225 20.494 49.7454 15.6547C49.7376 15.4673 48.9961 15.5649 48.7659 15.5532C47.4507 15.4986 46.0574 15.6469 44.7617 15.561C42.787 15.4322 41.9362 15.4088 41.5537 13.2233C42.6465 12.716 43.6963 12.4272 44.8632 12.1384C50.4909 10.7529 56.4971 10.1051 62.1521 8.73912C62.6867 8.65326 63.1551 9.30891 63.1707 9.79284C63.1785 10.0816 62.3823 12.8057 62.2184 13.2116L62.2145 13.2155Z" fill="#FDFDFD"/>
<path d="M148.118 13.2578C148.15 13.7066 148.091 14.171 148.118 14.6237L148.314 15.014C148.36 15.7204 148.271 16.4502 148.314 17.1566C148.442 19.307 148.396 21.6993 148.704 23.7833C148.79 24.3531 148.602 24.7083 149.09 25.2507C149.719 25.9493 151.237 25.5005 151.256 26.8001C151.276 28.369 149.313 28.1231 148.989 29.0364C148.489 30.4569 148.907 31.5575 148.907 32.8376C148.907 34.3518 149.082 39.8039 147.002 40.1239C143.95 40.5961 144.797 31.2492 144.032 30.6833C143.537 30.574 142.959 30.7926 142.46 30.894C140.969 31.2062 137.32 31.9438 136.114 32.541C135.755 32.7205 135.712 32.7478 135.47 33.0678C134.498 34.3401 133.273 37.3296 132.356 38.9219C131.204 40.9161 129.955 43.2733 128.582 45.092C126.209 48.2297 124.183 48.7644 125.69 43.9563C127.54 38.0515 130.822 30.9838 133.495 25.3405C134.338 23.5609 135.158 21.5978 136.032 19.8807C136.68 18.6084 137.761 17.1605 138.475 15.7906C140.079 12.7075 141.8 8.51994 143.599 5.71001C143.736 5.49927 144.267 4.78508 144.419 4.6758C145.043 4.22699 146.128 4.06308 146.753 4.58604C147.9 5.5422 148.005 11.5875 148.126 13.2539L148.118 13.2578ZM143.997 26.2928L144.606 14.6237C143.88 14.8813 143.412 15.4823 143.139 16.177L138.171 27.5885C140.102 27.5416 142.085 26.7025 143.993 26.2928H143.997Z" fill="#FDFDFD"/>
<path d="M156.696 7.74347C156.927 6.96294 156.977 6.01458 157.574 5.40186C158.105 4.85549 159.776 3.90323 160.299 4.82817L165.087 23.3386C165.536 23.4479 165.407 23.2527 165.532 23.0927C167.686 20.353 169.56 14.8425 171.16 11.572C172.455 8.92208 175.082 2.90024 177.689 1.72553C180.296 0.550826 180.456 1.63577 180.292 3.93836C180.093 6.74829 179.433 10.0656 179.125 13.0082C178.778 16.3177 178.462 19.6349 178.149 22.9522C177.728 27.4364 177.658 32.7441 176.967 37.076C176.444 40.3621 172.124 36.635 171.57 34.8905C171.347 34.192 171.48 32.787 171.519 32.0221C171.706 28.4901 172.58 24.9309 172.1 21.3951C171.148 22.6517 170.418 24.2987 169.727 25.7466C168.287 28.7633 167.195 32.3187 165.7 35.1715C163.366 39.6323 162.25 37.599 160.982 33.9695C159.951 31.023 159.979 27.9594 159.175 25.0558C159.108 24.8177 158.937 24.1582 158.648 24.123L154.729 43.1135C153.192 44.1438 151.689 41.9232 151.229 40.6041C149.617 36.0028 151.584 30.301 152.602 25.6841C152.958 24.0684 153.41 22.4371 153.773 20.8097C154.347 18.23 154.741 15.5801 155.334 13.0121C155.736 11.2676 156.197 9.46456 156.7 7.74738L156.696 7.74347Z" fill="#FDFDFD"/>
<path d="M235.285 4.51937C238.423 1.77188 243.266 -1.5376 247.505 0.7845C250.186 2.25191 250.112 4.36716 249.917 7.16149C249.796 8.90989 248.668 13.7687 247.091 14.6702C246.568 14.9708 243.785 15.283 243.501 14.8264C243.118 12.153 246.572 2.62657 240.741 7.54005C238.981 9.02697 237.272 11.2905 236.558 13.4955C236.245 14.4673 235.551 17.1914 236.05 18.0305C236.097 18.1085 237.295 19.131 237.44 19.2247C239.266 20.4306 241.822 20.5321 243.649 21.9839C248.391 25.75 245.448 33.5007 242.037 37.2004C238.895 40.6075 232.097 45.1541 227.285 43.5072C224.721 42.6291 223.616 38.8708 223.776 36.3926C223.878 34.8393 224.615 32.1035 225.529 30.8352C226.227 29.8595 227.187 29.9454 228.335 30.078C230.384 30.3083 230.875 30.8937 230.793 32.9816C230.231 33.5241 230.672 36.455 231.757 36.7946C234.146 37.5361 236.706 34.4217 237.65 32.5289C238.501 30.8274 238.927 27.8535 237.623 26.2924C237.471 26.109 237.248 26.1832 237.225 26.1597C235.617 24.6806 235.227 25.1919 233.326 24.7938C230.887 24.2865 228.171 23.8298 227.87 20.7936C227.234 14.4088 230.653 8.57035 235.278 4.51547L235.285 4.51937Z" fill="#FDFDFD"/>
<path d="M220.657 5.4229C222.82 8.38894 224.506 14.4576 224.751 18.0949C224.962 21.1585 224.627 24.4602 223.971 27.4536C222.441 34.4511 218.179 42.9394 210.319 44.0243C208.903 44.2195 207.24 44.3912 205.835 44.0243C203.049 43.2945 200.789 40.43 199.985 37.784C199.493 36.1721 199.435 34.5759 199.4 32.9095C199.388 32.3943 199.38 31.8636 199.4 31.3484C199.731 22.8991 205.659 12.479 212.072 7.07374C214.554 4.9819 217.961 1.72706 220.654 5.419L220.657 5.4229ZM207.4 26.673C207.205 27.3872 206.963 28.0897 206.815 28.8156C206.452 30.5757 206.046 32.968 206.249 34.7399C206.662 38.303 210.226 38.5879 212.665 36.6131C217.02 33.0851 217.984 23.9255 218.32 18.6764C218.32 18.6374 218.499 18.3174 218.515 17.8959C218.55 17.0763 218.546 16.1826 218.515 15.363C218.476 14.3288 218.109 9.70805 217.352 9.21631C217.059 9.02898 217.055 9.17338 216.852 9.31388C215.678 10.1334 213.988 12.3931 213.168 13.6263C210.671 17.3963 208.59 22.3059 207.4 26.673Z" fill="#FDFDFD"/>
<path d="M197.842 20.5201C196.988 21.3396 195.864 22.1358 194.919 22.8578C193.861 23.6695 191.98 25.1135 190.892 25.7536C190.22 26.1438 187.996 26.8463 187.617 27.3537C186.524 30.6553 186.009 34.1287 185.17 37.4811C184.628 39.651 183.902 41.8053 183.426 43.9986L182.633 43.9127C182.551 43.6513 182.185 43.3 182.048 42.9371C181.189 40.6813 180.202 38.2968 179.706 35.9201C179.082 32.9033 179.433 30.1363 180.097 27.1468C180.998 23.0841 182.665 18.3541 183.945 14.3265C184.745 11.8054 186.544 5.03812 187.703 3.16873C188.257 2.27502 189.705 1.63498 190.447 2.47405C190.728 2.79407 190.661 3.66047 191.091 3.53558C194.732 1.06909 199.079 -0.304658 201.784 4.20294C204.871 9.35448 201.839 16.6954 197.846 20.5201H197.842ZM197.991 5.55327C196.867 4.4293 190.248 6.59138 190.486 9.16715L189.069 19.5405C192.843 17.8857 196.574 12.8747 197.702 8.97202C197.901 8.28125 198.482 6.04501 197.991 5.55327Z" fill="#FDFDFD"/>
<path d="M128.422 11.2742C129.577 11.5006 130.529 13.5612 130.764 14.5876C130.81 14.7984 130.74 15.1223 130.764 15.3682V16.1487C130.553 18.0922 129.784 21.4212 127.161 20.4338C126.927 20.348 126.279 19.9226 126.279 19.7587V16.738C125.081 16.9682 123.887 18.3576 123.06 19.2708C119.699 22.9667 115.625 30.2491 116.14 35.3538C116.445 38.3589 118.373 38.1013 120.621 37.1061C121.979 36.5051 124.746 34.3079 126.088 34.5576C129.593 35.2055 126.443 39.2799 125.007 40.517C120.644 44.2831 116.164 45.7193 112.046 40.6146C106.348 33.5429 114.267 22.1003 119.251 16.6326C121.026 14.6852 125.608 10.7279 128.422 11.2781V11.2742Z" fill="#FDFDFD"/>
</svg>
