<svg width="18" height="19" viewBox="0 0 18 19" fill="none" xmlns="http://www.w3.org/2000/svg">
<path d="M2.25 4.95947V15.4595C2.25 15.8573 2.40804 16.2388 2.68934 16.5201C2.97064 16.8014 3.35218 16.9595 3.75 16.9595H14.25C14.6478 16.9595 15.0294 16.8014 15.3107 16.5201C15.592 16.2388 15.75 15.8573 15.75 15.4595V4.95947C15.75 4.56165 15.592 4.18012 15.3107 3.89881C15.0294 3.61751 14.6478 3.45947 14.25 3.45947H12.75V1.95947H11.25V3.45947H6.75V1.95947H5.25V3.45947H3.75C3.35218 3.45947 2.97064 3.61751 2.68934 3.89881C2.40804 4.18012 2.25 4.56165 2.25 4.95947ZM14.25 15.4595H3.75V6.45947H14.25V15.4595Z" fill="#A1A1A1"/>
</svg>
