<svg width="18" height="19" viewBox="0 0 18 19" fill="none" xmlns="http://www.w3.org/2000/svg">
<path d="M9 1.95947C4.8645 1.95947 1.5 5.32397 1.5 9.45947C1.5 13.595 4.8645 16.9595 9 16.9595C13.1355 16.9595 16.5 13.595 16.5 9.45947C16.5 5.32397 13.1355 1.95947 9 1.95947ZM9 15.4595C5.69175 15.4595 3 12.7677 3 9.45947C3 6.15122 5.69175 3.45947 9 3.45947C12.3082 3.45947 15 6.15122 15 9.45947C15 12.7677 12.3082 15.4595 9 15.4595Z" fill="#A1A1A1"/>
<path d="M9.75 5.70947H8.25V9.76997L10.7198 12.2397L11.7802 11.1792L9.75 9.14897V5.70947Z" fill="#A1A1A1"/>
</svg>
