<svg width="91" height="45" viewBox="0 0 91 45" fill="none" xmlns="http://www.w3.org/2000/svg">
<path d="M25.1822 22.4354C25.1822 16.9289 28.9351 13.1414 34.3722 13.1414C39.8093 13.1414 43.5607 16.9289 43.5607 22.4354C43.5607 27.9419 39.8079 31.7294 34.3722 31.7294C28.9365 31.7294 25.1822 27.9419 25.1822 22.4354ZM38.1597 22.4354C38.1597 19.6301 36.6863 17.8404 34.3722 17.8404C32.0581 17.8404 30.5847 19.6287 30.5847 22.4354C30.5847 25.2421 32.0581 27.0304 34.3722 27.0304C36.6863 27.0304 38.1597 25.2421 38.1597 22.4354Z" fill="#404040"/>
<path d="M82.0397 31.4954C83.3911 31.4954 84.4867 30.3998 84.4867 29.0484C84.4867 27.6969 83.3911 26.6013 82.0397 26.6013C80.6883 26.6013 79.5927 27.6969 79.5927 29.0484C79.5927 30.3998 80.6883 31.4954 82.0397 31.4954Z" fill="#FABC1E"/>
<path d="M49.8213 27.2745C49.8213 28.2337 49.4775 29.0585 48.7884 29.7461C48.0994 30.4351 47.276 30.7789 46.3169 30.7789V22.4137C46.3169 20.1054 47.1475 18.1408 48.8101 16.5201C50.4713 14.9008 52.4575 14.0904 54.7658 14.0904H59.6887C59.6887 15.0077 59.3652 15.7906 58.7195 16.4378C58.0723 17.0849 57.2908 17.407 56.3721 17.407H54.7658C53.3892 17.407 52.2206 17.8967 51.2614 18.8775C50.3023 19.8584 49.8227 21.0371 49.8227 22.4137V27.2745H49.8213Z" fill="#404040" stroke="#404040" stroke-width="1.30006" stroke-miterlimit="10"/>
<path d="M23.0776 18.9685C22.7756 18.9685 22.5604 18.9685 22.3452 18.9685C20.047 18.9671 17.7473 18.9512 15.4491 18.9685C13.4253 18.983 11.4752 19.334 9.69125 20.3596C8.38974 21.1078 7.37569 22.1161 6.79789 23.5231C6.769 23.5924 6.71844 23.6516 6.66644 23.7325C6.19264 21.8417 6.86144 19.0292 8.2164 17.238C10.0582 14.8026 12.4922 13.5299 15.5733 13.5473C16.4126 13.5516 17.2533 13.5299 18.0911 13.5545C20.1929 13.6195 22.0317 15.0293 22.6283 17.0387C22.8074 17.6454 22.9187 18.2723 23.079 18.9714L23.0776 18.9685Z" fill="#78368C"/>
<path d="M12.7897 24.6397C13.902 25.8878 15.2425 25.921 16.6249 25.9195C17.5523 25.9181 18.5187 25.9354 19.3998 26.1839C21.1708 26.6823 22.2383 27.952 22.702 29.7215C22.832 30.2213 22.936 30.7269 23.0732 31.3292C22.832 31.3292 22.6442 31.3292 22.4564 31.3292C20.9989 31.3292 19.5399 31.2758 18.0853 31.3466C16.3331 31.4304 15.0981 30.6547 14.1981 29.2419C13.3386 27.8928 12.9602 26.389 12.7897 24.6412V24.6397Z" fill="#78368C"/>
<path d="M15.059 31.3321C12.8648 31.1978 10.9884 30.4524 9.44134 28.9848C8.85342 28.4286 8.35795 27.7656 7.87404 27.1112C6.82966 25.6999 7.01889 24.2497 7.93182 22.8831C9.11199 21.1165 10.9205 20.3408 13.0512 19.8843C11.4044 21.8142 11.988 23.916 12.2639 25.9629C12.4546 27.377 12.9428 28.7103 13.7951 29.8746C14.1533 30.3657 14.5925 30.7976 15.059 31.3307V31.3321Z" fill="#78368C"/>
<path d="M65.3426 24.5054C65.2949 24.8231 65.2458 25.479 65.604 26.103C66.0619 26.8989 66.9041 27.1546 67.5252 27.3337C68.5292 27.6226 69.2456 27.5302 70.381 27.4623C72.5449 27.3337 73.6268 27.2702 74.3433 27.4623C75.3863 27.7425 76.6921 28.6742 77.8044 31.5676C74.8301 31.6644 71.8544 31.7611 68.8802 31.8594C68.3341 31.8781 64.564 31.9432 62.0375 28.9992C60.1625 26.8151 60.0932 24.3002 60.0932 23.383C60.0932 17.7941 63.6034 14.1829 68.9538 14.1829C69.7382 14.1829 71.5655 14.2883 73.3654 15.5537C75.7069 17.2033 76.3165 19.6763 76.4538 20.3235C76.5953 20.9692 76.8496 22.5408 75.9568 23.5679C75.2433 24.3883 74.1454 24.4591 72.2878 24.5082C70.4576 24.5574 68.1074 24.5805 65.3426 24.5082V24.5054ZM72.1592 21.1237C72.1347 20.8955 71.9527 19.4467 70.7031 18.6117C69.8827 18.0643 69.0246 18.0614 68.7487 18.0643C67.8979 18.0729 67.2912 18.3806 67.167 18.4471C66.2454 18.9382 65.591 19.8742 65.3411 21.0977C67.6133 21.1064 69.8856 21.1151 72.1578 21.1237H72.1592Z" fill="#404040"/>
<path d="M68.9177 15.6678C69.1488 15.6678 69.1488 15.3096 68.9177 15.3096C68.6866 15.3096 68.6866 15.6678 68.9177 15.6678Z" fill="#404040"/>
</svg>
