<svg width="40" height="41" viewBox="0 0 40 41" fill="none" xmlns="http://www.w3.org/2000/svg">
<rect x="0.5" y="1.00812" width="39" height="39" rx="6.5" stroke="#282828"/>
<path d="M19.7467 15.4751C18.4182 15.4751 17.144 16.0028 16.2046 16.9423C15.2652 17.8817 14.7374 19.1558 14.7374 20.4844C14.7374 21.813 15.2652 23.0871 16.2046 24.0265C17.144 24.966 18.4182 25.4937 19.7467 25.4937C21.0753 25.4937 22.3494 24.966 23.2889 24.0265C24.2283 23.0871 24.7561 21.813 24.7561 20.4844C24.7561 19.1558 24.2283 17.8817 23.2889 16.9423C22.3494 16.0028 21.0753 15.4751 19.7467 15.4751ZM19.7467 23.7376C18.8836 23.7376 18.0559 23.3948 17.4456 22.7845C16.8353 22.1742 16.4924 21.3464 16.4924 20.4833C16.4924 19.6202 16.8353 18.7925 17.4456 18.1822C18.0559 17.5718 18.8836 17.229 19.7467 17.229C20.6098 17.229 21.4376 17.5718 22.0479 18.1822C22.6582 18.7925 23.0011 19.6202 23.0011 20.4833C23.0011 21.3464 22.6582 22.1742 22.0479 22.7845C21.4376 23.3948 20.6098 23.7376 19.7467 23.7376Z" fill="#B6B6B6"/>
<path d="M24.9543 16.4587C25.5993 16.4587 26.1221 15.9358 26.1221 15.2908C26.1221 14.6459 25.5993 14.123 24.9543 14.123C24.3093 14.123 23.7865 14.6459 23.7865 15.2908C23.7865 15.9358 24.3093 16.4587 24.9543 16.4587Z" fill="#B6B6B6"/>
<path d="M28.9919 14.1035C28.7411 13.4558 28.3579 12.8677 27.8667 12.3767C27.3755 11.8857 26.7872 11.5027 26.1395 11.2521C25.3815 10.9676 24.5808 10.8137 23.7713 10.7971C22.7281 10.7516 22.3977 10.7386 19.7522 10.7386C17.1067 10.7386 16.7676 10.7386 15.733 10.7971C14.9242 10.8129 14.124 10.9668 13.367 11.2521C12.7191 11.5024 12.1307 11.8853 11.6394 12.3763C11.1482 12.8674 10.7651 13.4556 10.5146 14.1035C10.23 14.8614 10.0765 15.6622 10.0607 16.4716C10.0141 17.5138 10 17.8442 10 20.4908C10 23.1363 10 23.4732 10.0607 24.51C10.0769 25.3203 10.2297 26.1198 10.5146 26.8792C10.7658 27.5268 11.1493 28.1148 11.6406 28.6058C12.132 29.0968 12.7203 29.4798 13.3681 29.7305C14.1236 30.0265 14.9242 30.1914 15.7352 30.218C16.7784 30.2635 17.1088 30.2776 19.7543 30.2776C22.3998 30.2776 22.7389 30.2776 23.7735 30.218C24.5829 30.2016 25.3836 30.0481 26.1417 29.7641C26.7892 29.513 27.3773 29.1296 27.8685 28.6385C28.3596 28.1474 28.743 27.5593 28.9941 26.9117C29.279 26.1534 29.4317 25.3539 29.448 24.5435C29.4946 23.5014 29.5087 23.171 29.5087 20.5244C29.5087 17.8778 29.5087 17.542 29.448 16.5052C29.4354 15.6843 29.2811 14.8718 28.9919 14.1035ZM27.6724 24.4298C27.6654 25.0541 27.5515 25.6726 27.3355 26.2585C27.1728 26.6797 26.9237 27.0623 26.6043 27.3815C26.2849 27.7008 25.9022 27.9496 25.4808 28.112C24.9015 28.327 24.2896 28.441 23.6717 28.4489C22.6425 28.4966 22.3522 28.5085 19.7132 28.5085C17.072 28.5085 16.8022 28.5085 15.7536 28.4489C15.136 28.4414 14.5244 28.3274 13.9455 28.112C13.5227 27.9506 13.1384 27.7022 12.8176 27.3829C12.4968 27.0636 12.2467 26.6805 12.0833 26.2585C11.8703 25.6789 11.7564 25.0677 11.7463 24.4504C11.6997 23.4212 11.6889 23.1309 11.6889 20.4919C11.6889 17.8518 11.6889 17.582 11.7463 16.5323C11.7533 15.9083 11.8673 15.2902 12.0833 14.7047C12.4137 13.85 13.0907 13.1772 13.9455 12.85C14.5246 12.6357 15.1361 12.5217 15.7536 12.5131C16.7838 12.4665 17.0731 12.4535 19.7132 12.4535C22.3532 12.4535 22.6241 12.4535 23.6717 12.5131C24.2896 12.5206 24.9016 12.6345 25.4808 12.85C25.9022 13.0128 26.2848 13.2619 26.6042 13.5813C26.9236 13.9007 27.1727 14.2834 27.3355 14.7047C27.5484 15.2842 27.6623 15.8955 27.6724 16.5128C27.719 17.543 27.7309 17.8323 27.7309 20.4724C27.7309 23.1114 27.7309 23.3952 27.6843 24.4309H27.6724V24.4298Z" fill="#B6B6B6"/>
</svg>
