<svg width="101" height="70" viewBox="0 0 101 70" fill="none" xmlns="http://www.w3.org/2000/svg">
<path d="M86.8563 7.83072C86.5811 9.17007 85.7528 11.4023 84.8908 12.4581C83.6441 13.9884 81.103 15.1958 79.5699 16.4705C80.2101 18.1244 81.2939 19.5367 82.2233 21.0137C82.7091 21.7858 83.2819 22.5018 83.7677 23.2572C83.8182 23.3358 83.8238 23.5576 83.9277 23.7204C84.2534 24.2343 85.6209 26.0454 85.6967 26.4385C85.7388 26.6547 85.4973 26.9776 85.3092 27.0422C85.1379 27.1011 84.4865 27.1713 84.2618 27.1882C83.4784 27.2443 81.3389 27.0085 80.8194 27.1826L75.7456 19.4216L75.2093 19.0482C74.4399 22.002 74.2125 25.0795 73.2803 27.9912C73.1455 28.4152 72.6934 29.8837 72.4716 30.1336C72.2105 30.4284 70.9778 29.7798 70.6437 29.5692C69.4981 28.8504 68.914 27.7919 69.0488 26.4244C69.2566 24.3298 70.1495 21.55 70.5342 19.3514C71.4158 14.3029 71.9578 9.18972 72.8591 4.14398C72.9321 3.88847 73.1483 3.78738 73.3392 3.64138C74.7516 2.57439 79.8142 0.1175 81.4989 0.00799265C83.2847 -0.10713 85.2586 1.03567 86.2133 2.51261C87.3 4.19733 87.2466 5.92979 86.8563 7.83072ZM76.4756 12.5985C78.5591 11.5905 80.5526 10.3522 82.0829 8.59727C83.0769 7.31688 84.5735 4.32088 81.8808 4.17487C80.5498 4.10187 78.1491 4.67467 77.318 5.79782C76.31 7.15964 76.5542 10.9025 76.4756 12.5985Z" fill="#1D1D1D"/>
<path d="M65.3931 16.5267C66.3955 12.6013 67.0862 8.54951 67.4625 4.50056C67.5832 4.28997 67.7096 4.07096 67.9763 4.05411C68.3048 4.03445 70.4641 4.39948 70.9049 4.49775C71.5198 4.63815 71.5844 5.51982 71.5676 6.07016C71.3766 12.1969 69.0995 23.1729 65.0421 27.8873C62.8239 30.4677 60.1901 32.0205 57.1885 29.426C55.1387 27.6571 55.237 22.8416 55.4308 20.3117C55.5655 20.2752 55.5655 20.1488 55.5711 20.0309C55.5908 19.6602 55.5431 19.2784 55.5711 18.9077C55.7677 16.2627 56.3882 13.6795 56.6943 11.0541C57.3822 10.0152 57.5816 6.80582 58.5054 6.06454C58.9687 5.6939 61.1897 5.96627 61.3189 6.64016C61.5744 7.97389 60.5804 12.5985 60.3417 14.2804C59.8896 17.428 59.1652 20.8199 59.3533 24.0349C59.3983 24.7874 59.5359 26.9523 60.7657 26.5676C61.8524 26.2279 63.6494 21.9206 64.0958 20.7665C64.4412 19.8736 65.4268 17.3381 65.3931 16.5239V16.5267Z" fill="#1D1D1D"/>
<path d="M38.4544 22.9791C38.1203 23.2262 36.2727 24.3017 36.2222 24.4729C36.1127 24.8408 37.2274 26.4918 37.4717 26.9045C37.8704 27.584 38.3168 28.2074 38.7352 28.8672C39.0441 29.3558 39.4119 29.7995 39.718 30.2712C40.1363 30.917 41.0236 32.2114 41.2932 32.8348C41.3521 32.9724 41.4757 33.2223 41.3915 33.343C40.9787 33.927 37.9293 33.7164 37.1937 33.6378C37.1488 33.3233 36.8062 32.8797 36.6349 32.5821C35.4584 30.5576 33.8664 28.6314 32.6337 26.6266L30.1628 36.0807L29.9775 36.2604C29.6826 36.3053 28.1804 35.5528 27.9361 35.3197C27.7677 35.1597 27.3128 34.3257 27.2651 34.0955C26.9843 32.7253 28.1692 28.5865 28.4528 26.9298C29.1716 22.7152 29.6995 18.4669 30.3509 14.2411C30.3846 14.0614 30.4885 13.9266 30.598 13.7862C30.7946 13.5363 33.7316 11.8768 34.2145 11.6522C36.6658 10.5038 39.1564 9.70634 41.3156 11.9105C43.4749 14.1147 42.6381 17.7003 41.3325 20.0337C40.6024 21.3393 39.6337 22.1059 38.4544 22.9763V22.9791ZM33.5435 21.154C35.4921 20.6037 40.3947 16.8748 39.3614 14.564C38.8251 13.365 34.5824 14.2607 33.9927 15.7826C33.8495 16.1532 33.5435 17.7705 33.5435 18.1384V21.154Z" fill="#1D1D1D"/>
<path d="M11.5155 38.8296C11.5857 37.4678 13.3631 33.5817 13.9752 32.1019C16.7045 25.5034 20.102 19.1885 23.4855 12.927C25.0635 11.9723 25.4117 13.2134 25.6475 14.5331C25.9536 16.2599 25.9929 18.5848 26.1052 20.3875C26.2063 22.0048 26.2007 23.6446 26.2765 25.2648C26.4927 26.2419 27.8657 25.9078 27.9359 26.7052C28.0061 27.5026 26.5769 27.716 26.4141 28.2692C26.1361 29.2238 26.4927 31.6807 26.3888 32.8741C26.3158 33.7221 25.8188 35.4798 24.7013 34.9716C23.5837 34.4633 23.6792 30.2936 23.4265 29.1649C23.2328 29.1115 23.0362 29.1593 22.8453 29.1902C21.8906 29.3362 19.2203 29.9735 18.3864 30.3442C17.808 30.5997 17.2295 32.2563 16.8701 32.8937C16.0193 34.3988 14.8765 36.6647 13.8994 37.99C13.4277 38.6274 11.4088 40.8793 11.5155 38.8324V38.8296ZM23.7213 19.1913L22.9772 19.649L19.6555 27.3229L23.3788 26.3486L23.7241 19.1913H23.7213Z" fill="#1D1D1D"/>
<path d="M56.273 10.355C56.0483 10.9137 55.4812 11.2928 54.9112 11.4472C54.7034 11.5034 54.153 11.582 53.8891 11.6185C53.4483 11.6803 51.6793 11.5483 51.5277 11.992C50.5393 17.8155 49.6155 23.6643 48.3435 29.426C47.942 30.6839 45.7126 35.9487 45.3363 31.7425C45.1201 29.3418 45.9175 25.1356 46.1759 22.558C46.5269 19.0762 46.9256 15.5916 47.3018 12.1099C47.2962 11.9751 46.7627 12.0453 46.5971 12.0369C45.6508 11.9976 44.6484 12.1043 43.7162 12.0425C42.2954 11.9498 41.6833 11.933 41.4081 10.3606C42.1943 9.99556 42.9496 9.78778 43.7892 9.58C47.8381 8.5832 52.1594 8.1171 56.228 7.13434C56.6127 7.07257 56.9497 7.54429 56.9609 7.89247C56.9665 8.10025 56.3937 10.0601 56.2758 10.3522L56.273 10.355Z" fill="#1D1D1D"/>
<path d="M33.5489 41.1488C33.7145 40.5872 33.751 39.9049 34.1806 39.4641C34.5625 39.071 35.7643 38.3859 36.1405 39.0513L39.5858 52.3691C39.9087 52.4477 39.816 52.3073 39.9059 52.1922C41.4558 50.221 42.8036 46.2563 43.9548 43.9033C44.887 41.9968 46.7767 37.6642 48.6524 36.8191C50.528 35.9739 50.6432 36.7545 50.5252 38.4111C50.382 40.4328 49.9075 42.8195 49.6857 44.9366C49.4358 47.3177 49.2083 49.7044 48.9837 52.0911C48.6805 55.3173 48.6299 59.136 48.1329 62.2528C47.7567 64.617 44.6484 61.9355 44.2496 60.6804C44.0896 60.1777 44.1851 59.1669 44.2131 58.6166C44.3479 56.0754 44.9769 53.5147 44.6315 50.9707C43.9464 51.8749 43.4213 53.0598 42.9243 54.1015C41.8882 56.272 41.102 58.83 40.0266 60.8825C38.3475 64.0919 37.5445 62.629 36.6319 60.0177C35.8906 57.8978 35.9103 55.6936 35.3319 53.6045C35.2841 53.4332 35.1606 52.9587 34.9528 52.9334L32.1337 66.5965C31.0274 67.3378 29.9464 65.7401 29.615 64.7911C28.4554 61.4806 29.8705 57.3783 30.6034 54.0566C30.8589 52.8941 31.1846 51.7204 31.4458 50.5496C31.8585 48.6936 32.1421 46.787 32.5689 44.9394C32.8581 43.6843 33.1894 42.3871 33.5517 41.1516L33.5489 41.1488Z" fill="#1D1D1D"/>
<path d="M90.0911 31.8913C92.3486 29.9146 95.8332 27.5335 98.8825 29.2042C100.812 30.26 100.758 31.7818 100.618 33.7923C100.531 35.0502 99.7192 38.546 98.5849 39.1946C98.2086 39.4108 96.2066 39.6354 96.0016 39.3069C95.7265 37.3835 98.2114 30.5295 94.0165 34.0646C92.7501 35.1344 91.5203 36.763 91.0064 38.3494C90.7818 39.0486 90.282 41.0085 90.6414 41.6122C90.6751 41.6683 91.5371 42.404 91.641 42.4714C92.9551 43.339 94.7942 43.412 96.1083 44.4565C99.5199 47.1661 97.4028 52.7426 94.9487 55.4044C92.6883 57.8557 87.797 61.1269 84.3349 59.9419C82.4902 59.3102 81.6955 56.6062 81.8106 54.8232C81.8837 53.7057 82.4143 51.7373 83.0714 50.8248C83.574 50.1228 84.2647 50.1846 85.0902 50.2801C86.5644 50.4457 86.9182 50.8669 86.8592 52.3691C86.4549 52.7594 86.7722 54.8681 87.5527 55.1124C89.2712 55.6459 91.1131 53.4052 91.7926 52.0434C92.4047 50.8192 92.7108 48.6796 91.773 47.5564C91.6635 47.4245 91.5034 47.4778 91.4866 47.461C90.3297 46.3968 90.0489 46.7646 88.6815 46.4782C86.9266 46.1132 84.9723 45.7847 84.7561 43.6001C84.2984 39.0065 86.7581 34.8059 90.0854 31.8885L90.0911 31.8913Z" fill="#1D1D1D"/>
<path d="M79.567 33.8541C81.1226 35.988 82.3356 40.3543 82.5125 42.9712C82.6641 45.1754 82.4226 47.5508 81.9509 49.7045C80.8502 54.739 77.784 60.8461 72.129 61.6267C71.1097 61.7671 69.9136 61.8906 68.9027 61.6267C66.8979 61.1016 65.2722 59.0406 64.6937 57.1369C64.3399 55.9773 64.2978 54.8288 64.2726 53.6299C64.2641 53.2592 64.2585 52.8774 64.2726 52.5067C64.5112 46.4277 68.7764 38.9307 73.3897 35.0418C75.1755 33.5368 77.6268 31.195 79.5642 33.8512L79.567 33.8541ZM70.0287 49.1429C69.8883 49.6567 69.7142 50.1622 69.6075 50.6844C69.3464 51.9508 69.0544 53.672 69.2004 54.9468C69.498 57.5104 72.0616 57.7153 73.8165 56.2945C76.9501 53.7562 77.6436 47.1662 77.8851 43.3896C77.8851 43.3615 78.0143 43.1313 78.0255 42.828C78.0508 42.2383 78.048 41.5953 78.0255 41.0057C77.9974 40.2616 77.7335 36.9371 77.1888 36.5833C76.9782 36.4485 76.9754 36.5524 76.8294 36.6535C75.9842 37.2431 74.7684 38.8689 74.1787 39.7562C72.3817 42.4686 70.8851 46.0009 70.0287 49.1429Z" fill="#1D1D1D"/>
<path d="M63.1523 48.0225C62.5374 48.6122 61.7287 49.185 61.0492 49.7045C60.2883 50.2885 58.9349 51.3274 58.1515 51.7879C57.6686 52.0687 56.0681 52.5741 55.7957 52.9391C55.0095 55.3146 54.6389 57.8136 54.0352 60.2255C53.6449 61.7867 53.1226 63.3367 52.7801 64.9147L52.2101 64.8529C52.1511 64.6648 51.8872 64.4121 51.7889 64.1509C51.1711 62.528 50.4608 60.8124 50.1042 59.1024C49.6549 56.9319 49.9076 54.9411 50.3849 52.7903C51.0336 49.8673 52.2325 46.4642 53.1535 43.5665C53.7291 41.7526 55.0235 36.8837 55.8575 35.5388C56.2562 34.8958 57.2979 34.4353 57.8314 35.039C58.0336 35.2692 57.9858 35.8925 58.2947 35.8027C60.9145 34.0281 64.0424 33.0398 65.9883 36.2828C68.2093 39.9892 66.0276 45.2708 63.1551 48.0225H63.1523ZM63.259 37.2544C62.4504 36.4457 57.6882 38.0013 57.8595 39.8544L56.8402 47.3178C59.5554 46.1272 62.2398 42.5219 63.0512 39.7141C63.1944 39.2171 63.6128 37.6082 63.259 37.2544Z" fill="#1D1D1D"/>
<path d="M27.3774 45.3579C27.3998 45.6808 27.3577 46.0149 27.3774 46.3406L27.5178 46.6214C27.5515 47.1297 27.4869 47.6547 27.5178 48.163C27.6104 49.7101 27.5767 51.4313 27.7986 52.9307C27.8603 53.3407 27.7256 53.5962 28.0765 53.9865C28.5286 54.4891 29.6209 54.1662 29.6349 55.1012C29.6489 56.23 28.2366 56.0531 28.0035 56.7101C27.6441 57.7322 27.9446 58.524 27.9446 59.445C27.9446 60.5344 28.0709 64.457 26.5743 64.6873C24.3786 65.027 24.9879 58.3022 24.4375 57.895C24.0809 57.8164 23.6654 57.9736 23.306 58.0467C22.2334 58.2713 19.608 58.802 18.7404 59.2316C18.482 59.3607 18.4512 59.3804 18.2771 59.6106C17.5779 60.526 16.6962 62.6768 16.0364 63.8224C15.2081 65.2573 14.3096 66.9532 13.3212 68.2617C11.614 70.5192 10.1567 70.9039 11.2406 67.4446C12.5715 63.1963 14.9329 58.1112 16.8563 54.0511C17.4628 52.7707 18.0524 51.3583 18.6814 50.1228C19.1475 49.2075 19.9253 48.1658 20.4391 47.1802C21.5932 44.962 22.8314 41.9491 24.1259 39.9275C24.2241 39.7758 24.606 39.262 24.7155 39.1834C25.1648 38.8605 25.9454 38.7426 26.3946 39.1188C27.2201 39.8067 27.2959 44.1561 27.383 45.3551L27.3774 45.3579ZM24.4123 54.7362L24.8503 46.3406C24.328 46.526 23.9911 46.9584 23.7945 47.4582L20.2201 55.6684C21.61 55.6347 23.0364 55.031 24.4095 54.7362H24.4123Z" fill="#1D1D1D"/>
<path d="M13.206 42.4124C14.0371 42.5752 14.7222 44.0578 14.8907 44.7963C14.9244 44.9479 14.8738 45.181 14.8907 45.3578V45.9194C14.7391 47.3177 14.1859 49.7129 12.299 49.0025C12.1305 48.9407 11.6644 48.6346 11.6644 48.5167V46.3434C10.8024 46.5091 9.94321 47.5087 9.34794 48.1657C6.93037 50.8248 3.99895 56.0643 4.36959 59.7369C4.5886 61.899 5.97569 61.7137 7.59303 60.9977C8.57016 60.5653 10.5609 58.9844 11.5268 59.1641C14.0483 59.6302 11.7824 62.5617 10.7491 63.4518C7.60987 66.1614 4.38644 67.1946 1.42414 63.522C-2.67535 58.4341 3.02181 50.2014 6.60746 46.2676C7.88504 44.8665 11.1815 42.0193 13.206 42.4152V42.4124Z" fill="#1D1D1D"/>
</svg>
