<svg width="24" height="25" viewBox="0 0 24 25" fill="none" xmlns="http://www.w3.org/2000/svg">
<path d="M12.0001 2.45947C7.58908 2.45947 4.00008 6.04847 4.00008 10.4545C3.97108 16.8995 11.6961 22.2435 12.0001 22.4595C12.0001 22.4595 20.0291 16.8995 20.0001 10.4595C20.0001 6.04847 16.4111 2.45947 12.0001 2.45947ZM12.0001 14.4595C9.79008 14.4595 8.00008 12.6695 8.00008 10.4595C8.00008 8.24947 9.79008 6.45947 12.0001 6.45947C14.2101 6.45947 16.0001 8.24947 16.0001 10.4595C16.0001 12.6695 14.2101 14.4595 12.0001 14.4595Z" fill="#A1A1A1"/>
<path d="M12.0001 2.45947C7.58908 2.45947 4.00008 6.04847 4.00008 10.4545C3.97108 16.8995 11.6961 22.2435 12.0001 22.4595C12.0001 22.4595 20.0291 16.8995 20.0001 10.4595C20.0001 6.04847 16.4111 2.45947 12.0001 2.45947ZM12.0001 14.4595C9.79008 14.4595 8.00008 12.6695 8.00008 10.4595C8.00008 8.24947 9.79008 6.45947 12.0001 6.45947C14.2101 6.45947 16.0001 8.24947 16.0001 10.4595C16.0001 12.6695 14.2101 14.4595 12.0001 14.4595Z" fill="url(#paint0_linear_181_38)"/>
<defs>
<linearGradient id="paint0_linear_181_38" x1="4.34212" y1="4.47932" x2="21.4206" y2="6.29932" gradientUnits="userSpaceOnUse">
<stop stop-color="#EC006E"/>
<stop offset="1" stop-color="#474DFF"/>
</linearGradient>
</defs>
</svg>
