<svg width="40" height="41" viewBox="0 0 40 41" fill="none" xmlns="http://www.w3.org/2000/svg">
<rect x="0.5" y="1.00812" width="39" height="39" rx="7.5" stroke="#282828"/>
<path d="M27.7568 14.7588C26.6769 14.5213 25.7 13.9478 24.9663 13.1206C24.2325 12.2935 23.7796 11.2551 23.6727 10.1546V9.67792H19.9352V24.4871C19.9359 25.1442 19.7299 25.7849 19.3463 26.3184C18.9627 26.8519 18.421 27.2512 17.7978 27.4597C17.1747 27.6682 16.5017 27.6754 15.8743 27.4802C15.2468 27.285 14.6967 26.8973 14.3018 26.3721C13.9481 25.9072 13.7314 25.3525 13.6765 24.7709C13.6215 24.1893 13.7303 23.6039 13.9907 23.0809C14.251 22.5579 14.6525 22.1182 15.1498 21.8115C15.647 21.5048 16.2201 21.3434 16.8043 21.3454C17.1274 21.3436 17.4489 21.3911 17.7577 21.4862V17.6946C17.3984 17.6501 17.0363 17.632 16.6743 17.6404C15.3411 17.676 14.0472 18.0997 12.951 18.8595C11.8549 19.6192 11.0041 20.6822 10.5028 21.9181C10.0015 23.154 9.87152 24.5093 10.1287 25.818C10.386 27.1267 11.0192 28.332 11.951 29.2862C12.9059 30.2571 14.128 30.9222 15.4618 31.197C16.7956 31.4718 18.1809 31.3439 19.4419 30.8296C20.7028 30.3152 21.7824 29.4376 22.5434 28.3083C23.3045 27.179 23.7126 25.8489 23.716 24.4871V16.9038C25.2234 17.9805 27.031 18.5565 28.8835 18.5504V14.8671C28.5196 14.8686 28.1566 14.8323 27.8002 14.7588H27.7568Z" fill="#B6B6B6"/>
</svg>
