<svg width="40" height="41" viewBox="0 0 40 41" fill="none" xmlns="http://www.w3.org/2000/svg">
<rect x="0.5" y="1.00812" width="39" height="39" rx="7.5" stroke="#282828"/>
<path fill-rule="evenodd" clip-rule="evenodd" d="M26.6866 13.5477C25.7856 12.6409 24.7137 11.9218 23.5328 11.4321C22.352 10.9425 21.0857 10.6921 19.8074 10.6953C14.4471 10.6953 10.0834 15.0579 10.0813 20.4204C10.0813 22.1342 10.5287 23.8069 11.3791 25.2824L10 30.321L15.1556 28.9679C16.5817 29.7442 18.1794 30.1513 19.8031 30.152H19.8074C25.1667 30.152 29.5303 25.7894 29.5325 20.4269C29.5362 19.1491 29.2866 17.8832 28.7981 16.7025C28.3096 15.5217 27.5919 14.4495 26.6866 13.5477ZM19.8074 28.5107H19.8042C18.3563 28.5109 16.9351 28.1213 15.6897 27.383L15.395 27.2075L12.3357 28.0102L13.1514 25.0278L12.9597 24.7223C12.1502 23.4336 11.7217 21.9422 11.7236 20.4204C11.7257 15.9636 15.3517 12.3376 19.8107 12.3376C20.8726 12.3353 21.9245 12.5436 22.9054 12.9504C23.8863 13.3573 24.7767 13.9547 25.5252 14.708C26.2778 15.4577 26.8742 16.3491 27.2801 17.3307C27.686 18.3123 27.8934 19.3647 27.8902 20.4269C27.888 24.8837 24.2621 28.5107 19.8074 28.5107ZM24.2415 22.456C23.9977 22.3336 22.8039 21.7464 22.5807 21.6651C22.3587 21.5839 22.1972 21.5438 22.0347 21.7865C21.8722 22.0291 21.4064 22.5762 21.2645 22.7387C21.1226 22.9012 20.9807 22.9207 20.738 22.7994C20.4953 22.6781 19.7121 22.4213 18.7837 21.5936C18.0611 20.9491 17.5736 20.1539 17.4317 19.9101C17.2897 19.6664 17.4165 19.5353 17.5389 19.414C17.6483 19.3056 17.7816 19.1301 17.9029 18.9882C18.0242 18.8463 18.0643 18.7456 18.1456 18.5831C18.2268 18.4206 18.1867 18.2786 18.125 18.1573C18.0643 18.0349 17.5779 16.8389 17.3753 16.3525C17.1792 15.8812 16.9788 15.9441 16.8293 15.9376C16.6745 15.9312 16.5195 15.9283 16.3646 15.9289C16.2414 15.932 16.1201 15.9606 16.0084 16.0128C15.8968 16.065 15.7971 16.1397 15.7157 16.2322C15.4925 16.476 14.8652 17.0631 14.8652 18.2591C14.8652 19.4551 15.7362 20.6111 15.8576 20.7736C15.9789 20.9361 17.5714 23.3898 20.0089 24.4428C20.5896 24.6931 21.0424 24.8426 21.3945 24.9552C21.9762 25.1405 22.506 25.1134 22.9252 25.0516C23.3922 24.9823 24.3628 24.4645 24.5654 23.8968C24.768 23.3291 24.768 22.8427 24.7073 22.7409C24.6467 22.6391 24.4831 22.5773 24.2415 22.456Z" fill="#B6B6B6"/>
</svg>
