<svg width="40" height="41" viewBox="0 0 40 41" fill="none" xmlns="http://www.w3.org/2000/svg">
<rect x="0.5" y="1.00812" width="39" height="39" rx="6.5" stroke="#282828"/>
<path d="M31.2409 15.3049C31.1175 14.8471 30.8764 14.4295 30.5415 14.0939C30.2066 13.7582 29.7896 13.5161 29.3321 13.3917C27.6356 12.9259 20.8485 12.9183 20.8485 12.9183C20.8485 12.9183 14.0625 12.9107 12.3649 13.3559C11.9077 13.4861 11.4916 13.7316 11.1565 14.0689C10.8215 14.4062 10.5788 14.824 10.4518 15.2821C10.0043 16.9786 10 20.4973 10 20.4973C10 20.4973 9.99567 24.0333 10.4398 25.7124C10.689 26.6409 11.4203 27.3743 12.3498 27.6245C14.0636 28.0904 20.8323 28.0979 20.8323 28.0979C20.8323 28.0979 27.6193 28.1055 29.3158 27.6614C29.7735 27.5372 30.1909 27.2956 30.5266 26.9606C30.8624 26.6257 31.1048 26.2089 31.2301 25.7514C31.6786 24.056 31.6818 20.5384 31.6818 20.5384C31.6818 20.5384 31.7035 17.0014 31.2409 15.3049ZM18.6775 23.757L18.6829 17.257L24.3238 20.5124L18.6775 23.757Z" fill="#B6B6B6"/>
</svg>
